<svg id="Capa_1" enable-background="new 0 0 512.026 512.026" height="512" viewBox="0 0 512.026 512.026" width="512" xmlns="http://www.w3.org/2000/svg"><g><g><path d="m463.761 383.146c1.603-5.316 2.437-10.894 2.437-16.595v-10.673c0-18.779-6.461-37.198-18.198-51.862l-6.78-8.482c9.725-3.255 16.799-12.35 16.799-23.163v-49.073c0-13.528-11.009-24.537-24.537-24.537h-32.716c-13.528 0-24.537 11.009-24.537 24.537v17.519c-2.634-.687-5.341-1.161-8.179-1.161h-16.358-8.179-60.802l-11.508-19.18c-1.775-2.953-3.918-5.619-6.281-8.04 12.162-3.337 23.334-9.717 32.495-18.877 3.452-3.452 6.519-7.189 9.177-11.156h4.204c22.549 0 40.895-18.345 40.895-40.895v-32.716c0-58.626-47.699-106.326-106.326-106.326h-32.716c-58.626 0-106.326 47.699-106.326 106.326v32.716c0 22.549 18.345 40.895 40.895 40.895h4.278c10.894 16.235 28.078 27.866 48.035 31.472-7.075 8.024-11.418 18.632-11.418 30.426 0 9.381 2.887 18.37 8.334 26.001l8.024 11.238v23.547c0 8.94 2.445 17.307 6.641 24.537h-40.862c.916-2.568 1.505-5.3 1.505-8.179v-73.61c0-18.043-14.673-32.716-32.716-32.716h-34.63l17.102-28.504-14.027-8.416-17.519 29.199-17.527-29.207-14.027 8.416 17.11 28.512h-34.63c-18.043 0-32.716 14.673-32.716 32.716v73.61c0 13.528 11.009 24.537 24.537 24.537h12.596c-7.803 8.694-12.596 20.137-12.596 32.716h-16.356c-9.022-.001-16.358 7.335-16.358 16.357v16.358c0 9.021 7.336 16.358 16.358 16.358h16.358c.499 0 .973-.106 1.464-.147 3.345 9.578 12.367 16.505 23.073 16.505h8.179c0 36.077 29.354 65.431 65.431 65.431s65.431-29.354 65.431-65.431h73.61 65.431 16.358c0 36.077 29.354 65.431 65.431 65.431s65.431-29.354 65.431-65.431h16.358v-8.179c.001-23.507-14.075-44.052-35.152-52.804zm-13.921-27.268v10.673c0 10.919-4.253 21.192-11.974 28.921-8.572 8.572-18.353 15.458-28.896 20.717 5.136-8.596 8.154-18.599 8.154-29.313v-40.895l-6.944-49.073h11.189l13.855 17.331c9.431 11.769 14.616 26.557 14.616 41.639zm-114.505 43.724v-53.621c0-9.242-3.198-17.683-8.392-24.537h.213c10.649 0 19.646-6.862 23.032-16.358h17.863c8.22 0 15.654-3.149 21.412-8.179h4.212l7.091 49.654v40.314c0 22.549-18.345 40.895-40.895 40.895h-8.179c.001-12.055-6.624-22.492-16.357-28.168zm-63.034-75.761-13.961 13.961h-4.793c-18.043 0-32.716-14.673-32.716-32.716v-5.251c16.121 13.757 36.83 21.609 58.447 21.609h15.164c13.528 0 24.537 11.009 24.537 24.537v49.073h-49.073v-45.687l13.961-13.961zm169.36-100.544v49.073c0 4.507-3.672 8.179-8.179 8.179h-9.684c.916-2.568 1.505-5.3 1.505-8.179v-49.073c0-2.879-.589-5.611-1.505-8.179h9.684c4.507.001 8.179 3.673 8.179 8.179zm-40.894-8.178c4.507 0 8.179 3.672 8.179 8.179v49.073c0 4.507-3.672 8.179-8.179 8.179h-1.161c.687-2.634 1.161-5.341 1.161-8.179 0-8.22-3.149-15.654-8.179-21.412v-27.661c0-4.507 3.672-8.179 8.179-8.179zm-32.716 40.894c9.021 0 16.358 7.336 16.358 16.358 0 9.021-7.336 16.358-16.358 16.358h-16.358v-32.716zm-90.213 26.524 6.633-26.524h50.865v40.895c0 4.507-3.672 8.179-8.179 8.179h-47.879c-23.719 0-46.113-11.524-59.894-30.826l-9.627-13.471c-3.451-4.834-5.284-10.543-5.284-17.298 0-15.646 12.726-28.373 28.373-28.373 9.913 0 19.237 5.284 24.332 13.781l12.146 20.243-7.353 29.428zm-65.186-83.776c-11.352 0-21.919-3.362-30.835-9.087.466-.99.941-1.996 1.382-2.944 2.625-5.701 4.744-10.207 8.858-13.552l.057.041.131-.196c5.856-4.637 15.736-6.977 36.764-6.977 21.02 0 30.908 2.339 36.756 6.968l.139.204.057-.041c4.114 3.345 6.232 7.852 8.858 13.561.442.965.924 1.979 1.399 2.985-9.128 5.856-19.736 9.038-30.851 9.038zm73.61-114.505c9.021 0 16.358 7.336 16.358 16.358v28.348l-37.639 25.191c-8.261-2.904-19.605-4.466-35.971-4.466-16.374 0-27.71 1.562-35.971 4.458l-37.639-25.183v-28.348c0-4.368 1.701-8.482 4.785-11.565 3.1-3.092 7.206-4.793 11.573-4.793zm2.764 94.246c-2.642-5.643-5.3-10.592-9.03-14.722l22.084-14.78c-1.423 10.911-5.897 21.077-13.054 29.502zm46.309-69.709v32.716c0 12.137-8.874 22.173-20.464 24.128 2.65-7.672 4.114-15.777 4.106-24.128v-40.895c0-18.043-14.673-32.716-32.716-32.716h-12.735l14.379-38.351c28.21 15.205 47.43 45.017 47.43 79.246zm-89.968-89.968c9.578 0 18.803 1.538 27.473 4.327l-16.783 44.747h-54.095l-16.783-44.747c8.67-2.789 17.895-4.327 27.473-4.327zm-122.683 122.683v-32.716c0-34.229 19.22-64.041 47.43-79.245l14.379 38.351h-12.735c-8.743 0-16.955 3.402-23.138 9.586-6.175 6.175-9.578 14.395-9.578 23.13v40.895c0 8.457 1.505 16.554 4.147 24.128-11.607-1.939-20.505-11.975-20.505-24.129zm33.272 7.509 22.067 14.771c-3.713 4.122-6.371 9.062-9.013 14.689-6.937-8.179-11.582-18.321-13.054-29.46zm-8.736 180.606h-49.073v-49.073h57.252v40.895c0 4.506-3.672 8.178-8.179 8.178zm8.179-81.789v16.358h-57.252v-32.716h40.895c9.021 0 16.357 7.337 16.357 16.358zm-114.504-16.358h40.895v32.716h-57.253v-16.358c0-9.021 7.336-16.358 16.358-16.358zm-16.358 89.968v-40.894h57.252v49.073h-49.073c-4.507 0-8.179-3.672-8.179-8.179zm-8.179 89.968v-16.358h16.358v16.358zm163.578 16.358h-98.147v-24.537c0-4.507 3.672-8.179 8.179-8.179h81.789c4.507 0 8.179 3.672 8.179 8.179zm-32.716 16.358c0 9.021-7.336 16.358-16.358 16.358s-16.358-7.336-16.358-16.358zm-16.357 49.074c-27.064 0-49.073-22.009-49.073-49.073h16.358c0 18.043 14.673 32.716 32.716 32.716s32.716-14.673 32.716-32.716h16.358c-.002 27.063-22.011 49.073-49.075 49.073zm65.431-65.432v-24.537c0-13.528-11.009-24.537-24.537-24.537h-81.789c-13.528 0-24.537 11.009-24.537 24.537v24.537h-8.179c-4.507 0-8.179-3.672-8.179-8.179v-8.179-16.358-16.358c0-18.043 14.673-32.716 32.716-32.716h65.431 79.254c7.77 5.161 17.069 8.179 27.072 8.179v57.252 8.179 8.179h-57.252zm73.61 0v-8.179-8.179h49.073c9.021 0 16.358 7.336 16.366 16.358zm147.221 65.432c-27.064 0-49.073-22.009-49.073-49.073h16.358c0 18.043 14.673 32.716 32.716 32.716s32.716-14.673 32.716-32.716h16.358c-.002 27.063-22.011 49.073-49.075 49.073zm-16.358-49.074h32.716c0 9.021-7.336 16.358-16.358 16.358s-16.358-7.337-16.358-16.358zm21.249-16.358c9.896-5.594 19.147-12.481 27.408-20.742 2.805-2.805 5.259-5.856 7.394-9.087 12.882 5.095 22.214 16.333 24.921 29.828h-59.723z"/><path d="m474.377 239.655h32.716v16.358h-32.716z"/><path d="m482.582 256.016h16.358v40.896h-16.358z" transform="matrix(.6 -.8 .8 .6 -24.916 503.081)"/><path d="m472.431 206.941h36.575v16.357h-36.575z" transform="matrix(.894 -.447 .447 .894 -44.398 242.167)"/><path d="m171.757 133.329h16.358v-8.179c0-4.507 3.672-8.179 8.179-8.179s8.179 3.672 8.179 8.179v8.179h16.358v-8.179c0-13.528-11.009-24.537-24.537-24.537s-24.537 11.009-24.537 24.537z"/><path d="m253.546 125.15c0-4.507 3.672-8.179 8.179-8.179s8.179 3.672 8.179 8.179v8.179h16.358v-8.179c0-13.528-11.009-24.537-24.537-24.537s-24.537 11.009-24.537 24.537v8.179h16.358z"/></g></g></svg>