<?xml version="1.0" encoding="utf-8"?>
<!-- Generator: Adobe Illustrator 18.0.0, SVG Export Plug-In . SVG Version: 6.00 Build 0)  -->
<!DOCTYPE svg PUBLIC "-//W3C//DTD SVG 1.1//EN" "http://www.w3.org/Graphics/SVG/1.1/DTD/svg11.dtd">
<svg version="1.1" id="Layer_1" xmlns="http://www.w3.org/2000/svg" xmlns:xlink="http://www.w3.org/1999/xlink" x="0px" y="0px"
	 viewBox="0 0 79.3 75.3" enable-background="new 0 0 79.3 75.3" xml:space="preserve">
<g>
	<path fill-rule="evenodd" clip-rule="evenodd" fill="#111F37" d="M28.2,53.2v6.6c0,3,1.2,5.6,3.1,7.5c2,1.9,4.7,3.1,7.6,3.1h14.8
		c3,0,5.7-1.2,7.6-3.2c2-2,3.2-4.7,3.2-7.6V42.6h3.1v17.1c0,3.8-1.6,7.3-4.1,9.8c-2.5,2.5-6,4.1-9.8,4.1H39c-3.8,0-7.3-1.5-9.8-4
		c-2.5-2.5-4.1-5.9-4.1-9.8v-6.6H28.2z"/>
	<path fill-rule="evenodd" clip-rule="evenodd" fill="#04B2C8" d="M22.5,7.1L15,4c-0.7-0.3-1.4-0.4-2-0.4c-1.6,0-3.1,0.7-4.4,1.9
		c-1.4,1.2-2.6,3-3.4,4.8c-0.7,1.6-1.1,3.4-1.1,5v17.1H2V15.4c0-1.9,0.5-4,1.2-5.8c0.9-2.2,2.3-4.1,3.9-5.6c1.7-1.5,3.7-2.5,5.8-2.5
		c0.9,0,1.9,0.2,2.8,0.6l7.5,3.1L22.5,7.1z"/>
	<path fill-rule="evenodd" clip-rule="evenodd" fill="#0595A8" d="M29.6,5.2l7.5-3.1c1-0.4,1.9-0.6,2.8-0.6c2.1,0,4.1,0.9,5.8,2.5
		c1.6,1.5,3,3.4,3.9,5.6c0.8,1.9,1.2,3.9,1.2,5.8v17.1h-2.1V15.4c0-1.7-0.4-3.4-1.1-5c-0.8-1.9-2-3.6-3.4-4.8
		c-1.3-1.2-2.9-1.9-4.4-1.9c-0.7,0-1.4,0.1-2,0.4l-7.5,3.1L29.6,5.2z"/>
	<circle fill-rule="evenodd" clip-rule="evenodd" fill="#04B2C8" cx="66.3" cy="35.1" r="10.5"/>
	<path fill-rule="evenodd" clip-rule="evenodd" fill="#0595A8" d="M66.3,24.6c5.8,0,10.5,4.7,10.5,10.5c0,5.8-4.7,10.5-10.5,10.5
		V24.6z"/>
	<path fill-rule="evenodd" clip-rule="evenodd" fill="#1D3967" d="M66.3,23.4c3.2,0,6.2,1.3,8.3,3.4c2.1,2.1,3.4,5,3.4,8.3
		c0,3.2-1.3,6.2-3.4,8.3c-2.1,2.1-5,3.4-8.3,3.4c-3.2,0-6.2-1.3-8.3-3.4c-2.1-2.1-3.4-5-3.4-8.3c0-3.2,1.3-6.2,3.4-8.3
		C60.1,24.7,63,23.4,66.3,23.4L66.3,23.4z M72.9,28.5c-1.7-1.7-4-2.7-6.6-2.7c-2.6,0-4.9,1.1-6.6,2.7c-1.7,1.7-2.7,4-2.7,6.6
		c0,2.6,1.1,4.9,2.7,6.6c1.7,1.7,4,2.7,6.6,2.7c2.6,0,4.9-1.1,6.6-2.7c1.7-1.7,2.7-4,2.7-6.6C75.7,32.5,74.6,30.2,72.9,28.5z"/>
	<path fill-rule="evenodd" clip-rule="evenodd" fill="#111F37" d="M66.3,23.4c3.2,0,6.2,1.3,8.3,3.4c2.1,2.1,3.4,5,3.4,8.3
		c0,3.2-1.3,6.2-3.4,8.3c-2.1,2.1-5,3.4-8.3,3.4v-2.3c2.6,0,4.9-1.1,6.6-2.7c1.7-1.7,2.7-4,2.7-6.6c0-2.6-1.1-4.9-2.7-6.6
		c-1.7-1.7-4-2.7-6.6-2.7V23.4z"/>
	<circle fill-rule="evenodd" clip-rule="evenodd" fill="#04B2C8" cx="66.3" cy="35.1" r="5.6"/>
	<path fill-rule="evenodd" clip-rule="evenodd" fill="#0595A8" d="M66.3,29.5c3.1,0,5.6,2.5,5.6,5.6c0,3.1-2.5,5.6-5.6,5.6V29.5z"/>
	<path fill-rule="evenodd" clip-rule="evenodd" fill="#1D3967" d="M66.3,28.6c1.8,0,3.4,0.7,4.6,1.9c1.2,1.2,1.9,2.8,1.9,4.6
		c0,1.8-0.7,3.4-1.9,4.6c-1.2,1.2-2.8,1.9-4.6,1.9c-1.8,0-3.4-0.7-4.6-1.9c-1.2-1.2-1.9-2.8-1.9-4.6c0-1.8,0.7-3.4,1.9-4.6
		C62.8,29.3,64.5,28.6,66.3,28.6L66.3,28.6z M69.6,31.8c-0.9-0.9-2-1.4-3.3-1.4s-2.5,0.5-3.3,1.4c-0.9,0.9-1.4,2-1.4,3.3
		c0,1.3,0.5,2.5,1.4,3.3c0.9,0.9,2,1.4,3.3,1.4s2.5-0.5,3.3-1.4c0.9-0.9,1.4-2,1.4-3.3C71,33.8,70.5,32.6,69.6,31.8z"/>
	<path fill-rule="evenodd" clip-rule="evenodd" fill="#111F37" d="M66.3,28.6c1.8,0,3.4,0.7,4.6,1.9c1.2,1.2,1.9,2.8,1.9,4.6
		c0,1.8-0.7,3.4-1.9,4.6c-1.2,1.2-2.8,1.9-4.6,1.9v-1.8c1.3,0,2.5-0.5,3.3-1.4c0.9-0.9,1.4-2,1.4-3.3c0-1.3-0.5-2.5-1.4-3.3
		c-0.9-0.9-2-1.4-3.3-1.4V28.6z"/>
	<circle fill-rule="evenodd" clip-rule="evenodd" fill="#1D3967" cx="66.3" cy="35.1" r="1.3"/>
	<path fill-rule="evenodd" clip-rule="evenodd" fill="#111F37" d="M66.3,33.9c0.7,0,1.3,0.6,1.3,1.3c0,0.7-0.6,1.3-1.3,1.3V33.9z"/>
	<path fill-rule="evenodd" clip-rule="evenodd" fill="#1D3967" d="M23.9,4.3c-0.4-0.1-0.9,0-1.3,0.2l-3-1.3l-1.1,2.6l3,1.3
		c0.3,0.8,0.9,1.4,1.8,1.5c1.2,0.2,2.3-0.7,2.5-1.9C25.9,5.6,25.1,4.5,23.9,4.3z"/>
	<path fill-rule="evenodd" clip-rule="evenodd" fill="#111F37" d="M29,4.3c0.4-0.1,0.9,0,1.3,0.2l3-1.3l1.1,2.6l-3,1.3
		c-0.3,0.8-0.9,1.4-1.8,1.5c-1.2,0.2-2.3-0.7-2.5-1.9C27,5.6,27.8,4.5,29,4.3z"/>
	<path fill-rule="evenodd" clip-rule="evenodd" fill="#1D3967" d="M51.4,29.9c0,6.9-2.8,13.1-7.3,17.6c-4.5,4.5-10.8,7.3-17.6,7.3
		l0,0c-6.9,0-13.1-2.8-17.6-7.3C4.3,43,1.5,36.8,1.5,29.9h3.1c0,6,2.5,11.5,6.4,15.4s9.4,6.4,15.4,6.4l0,0c6,0,11.5-2.5,15.4-6.4
		c4-4,6.4-9.4,6.4-15.4H51.4z"/>
	<path fill-rule="evenodd" clip-rule="evenodd" fill="#111F37" d="M51.4,29.9c0,6.9-2.8,13.1-7.3,17.6c-4.5,4.5-10.8,7.3-17.6,7.3
		v-3.1c6,0,11.5-2.5,15.4-6.4c4-4,6.4-9.4,6.4-15.4H51.4z"/>
</g>
</svg>
